<svg xmlns="http://www.w3.org/2000/svg" version="1.1" xmlns:xlink="http://www.w3.org/1999/xlink" xmlns:svgjs="http://svgjs.dev/svgjs" viewBox="0 0 14.357457411062809 9.685636657301906"><g transform="matrix(1,0,0,1,0.9788915524064032,7.1381051048955015)"><g><path d=" M 0.5325120000000001 1.56864 Q 0.33230400000000004 1.56864 0.21465600000000004 1.446864 Q 0.09700800000000001 1.325088 0.09700800000000001 1.122816 Q 0.09700800000000001 0.9700799999999999 0.15996000000000002 0.8503679999999999 Q 0.22291200000000003 0.730656 0.33230400000000004 0.6635759999999999 Q 0.4416960000000001 0.5964959999999999 0.5820480000000001 0.5964959999999999 Q 0.6687360000000001 0.5964959999999999 0.747168 0.6243599999999999 Q 0.8256000000000001 0.6522239999999999 0.8668800000000001 0.6976319999999999 Q 0.8978400000000001 0.7347839999999999 0.8978400000000001 0.7595519999999999 Q 0.8978400000000001 0.776064 0.8926800000000001 0.7853519999999999 Q 0.8875200000000001 0.7946399999999999 0.8730720000000001 0.8090879999999999 L 0.7884480000000001 0.8772 L 0.7740000000000001 0.8772 L 0.7038240000000001 0.782256 Q 0.6728640000000001 0.7389119999999999 0.6295200000000001 0.713112 Q 0.586176 0.6873119999999999 0.520128 0.6873119999999999 Q 0.41073600000000005 0.6873119999999999 0.34881600000000007 0.7781279999999999 Q 0.28689600000000004 0.8689439999999999 0.28689600000000004 1.027872 Q 0.28689600000000004 1.12488 0.31888800000000006 1.209504 Q 0.35088 1.294128 0.42621600000000004 1.345728 Q 0.5015520000000001 1.397328 0.6315840000000001 1.397328 Q 0.6893760000000001 1.397328 0.7554240000000001 1.37772 Q 0.8214720000000001 1.358112 0.8957760000000001 1.318896 L 0.9019680000000001 1.318896 L 0.9019680000000001 1.343664 Q 0.8544960000000001 1.438608 0.7574880000000002 1.503624 Q 0.6604800000000001 1.56864 0.5325120000000001 1.56864 M 1.1570864625000001 1.548 L 1.1570864625000001 1.514976 L 1.2891824625000001 1.448928 L 1.2891824625000001 0.23529599999999995 L 1.1632784625 0.13003199999999993 L 1.1632784625 0.11351999999999984 L 1.4687504625 -2.220446049250313e-16 L 1.4831984625000003 -2.220446049250313e-16 L 1.4831984625000003 0.7492319999999999 L 1.4914544625000001 0.7492319999999999 Q 1.5698864625000002 0.6728639999999999 1.6421264625000003 0.6346799999999999 Q 1.7143664625000001 0.5964959999999999 1.8051824625000004 0.5964959999999999 Q 1.9248944625000002 0.5964959999999999 2.0043584625000004 0.657384 Q 2.0838224625000006 0.7182719999999999 2.0838224625000006 0.8400479999999999 L 2.0838224625000006 1.448928 L 2.2138544625000005 1.514976 L 2.2138544625000005 1.548 L 1.7515184625000002 1.548 L 1.7515184625000002 1.514976 L 1.8877424625000003 1.45512 L 1.8877424625000003 0.9349919999999999 Q 1.8877424625000003 0.84624 1.8340784625000004 0.8018639999999999 Q 1.7804144625000002 0.7574879999999999 1.6957904625000002 0.7574879999999999 Q 1.6441904625000001 0.7574879999999999 1.5822704625000004 0.7739999999999999 Q 1.5203504625000002 0.7905119999999999 1.4831984625000003 0.8255999999999999 L 1.4831984625000003 1.45512 L 1.6194224625000002 1.514976 L 1.6194224625000002 1.548 L 1.1570864625000001 1.548 M 2.8962682921875005 1.56864 Q 2.6939962921875007 1.56864 2.5763482921875007 1.446864 Q 2.4587002921875007 1.325088 2.4587002921875007 1.122816 Q 2.4587002921875007 0.9700799999999999 2.5216522921875004 0.8503679999999999 Q 2.5846042921875005 0.730656 2.6888362921875006 0.6635759999999999 Q 2.7930682921875007 0.5964959999999999 2.9148442921875004 0.5964959999999999 Q 3.079964292187501 0.5964959999999999 3.1728442921875004 0.708984 Q 3.2657242921875005 0.821472 3.2677882921875008 1.032 L 3.2574682921875007 1.0423200000000001 L 2.6485882921875006 1.0423200000000001 Q 2.6506522921875004 1.137264 2.6847082921875005 1.21776 Q 2.7187642921875006 1.298256 2.7941002921875007 1.347792 Q 2.8694362921875007 1.397328 2.9974042921875004 1.397328 Q 3.115052292187501 1.397328 3.2636602921875006 1.318896 L 3.2698522921875006 1.318896 L 3.2698522921875006 1.343664 Q 3.220316292187501 1.438608 3.1233082921875006 1.503624 Q 3.026300292187501 1.56864 2.8962682921875005 1.56864 M 2.8776922921875006 0.6873119999999999 Q 2.7868762921875008 0.6873119999999999 2.728052292187501 0.7554239999999999 Q 2.6692282921875004 0.8235359999999999 2.6527162921875007 0.947376 L 3.0923482921875007 0.947376 Q 3.0717082921875005 0.807024 3.0180442921875006 0.7471679999999999 Q 2.9643802921875007 0.6873119999999999 2.8776922921875006 0.6873119999999999 M 3.547665684375001 1.548 L 3.547665684375001 1.514976 L 3.6797616843750007 1.448928 L 3.6797616843750007 0.7120799999999999 L 3.518769684375001 0.7120799999999999 L 3.518769684375001 0.6171359999999999 L 3.6797616843750007 0.6171359999999999 L 3.6797616843750007 0.5387039999999998 Q 3.6797616843750007 0.49329599999999996 3.7034976843750007 0.42621599999999993 Q 3.7272336843750007 0.3591359999999999 3.770577684375001 0.28483199999999975 Q 3.813921684375001 0.21052799999999983 3.874809684375001 0.14654399999999979 Q 3.935697684375001 0.08255999999999974 4.0110336843750005 0.04127999999999976 Q 4.086369684375001 -2.220446049250313e-16 4.170993684375 -2.220446049250313e-16 Q 4.189569684375001 -2.220446049250313e-16 4.2112416843750005 0.006191999999999753 Q 4.232913684375001 0.012383999999999729 4.247361684375001 0.018575999999999926 Q 4.307217684375001 0.04540799999999989 4.307217684375001 0.07636799999999977 Q 4.307217684375001 0.08875199999999994 4.296897684375001 0.11351999999999984 L 4.253553684375001 0.2167199999999998 L 4.237041684375001 0.2167199999999998 L 4.185441684375001 0.1960799999999998 Q 4.125585684375001 0.16924799999999984 4.053345684375001 0.16924799999999984 Q 3.9439536843750007 0.16924799999999984 3.9088656843750007 0.24045599999999978 Q 3.8737776843750007 0.31166399999999994 3.8737776843750007 0.4602719999999998 L 3.8737776843750007 0.6171359999999999 L 4.140033684375001 0.6171359999999999 L 4.140033684375001 0.7120799999999999 L 3.8737776843750007 0.7120799999999999 L 3.8737776843750007 1.4530560000000001 L 4.024449684375001 1.514976 L 4.024449684375001 1.548 L 3.547665684375001 1.548 M 4.477702068750001 0.53664 L 4.405462068750001 0.02063999999999977 L 4.595350068750001 0.02063999999999977 L 4.523110068750001 0.53664 L 4.477702068750001 0.53664 M 5.2735804687500005 1.56864 Q 5.174508468750001 1.56864 5.1033004687500005 1.551096 Q 5.032092468750001 1.533552 4.959852468750001 1.4964 L 4.959852468750001 1.2652320000000001 L 4.990812468750001 1.2652320000000001 L 5.056860468750001 1.3766880000000001 Q 5.124972468750001 1.490208 5.267388468750001 1.490208 Q 5.349948468750001 1.490208 5.394324468750001 1.4530560000000001 Q 5.438700468750001 1.415904 5.438700468750001 1.349856 Q 5.438700468750001 1.296192 5.410836468750001 1.263168 Q 5.382972468750001 1.2301440000000001 5.330340468750001 1.205376 Q 5.277708468750001 1.1806079999999999 5.2034044687500005 1.1455199999999999 Q 5.096076468750001 1.098048 5.039316468750001 1.0402559999999998 Q 4.982556468750001 0.982464 4.982556468750001 0.881328 Q 4.982556468750001 0.800832 5.026932468750001 0.736848 Q 5.071308468750001 0.6728639999999999 5.141484468750001 0.6346799999999999 Q 5.211660468750001 0.5964959999999999 5.290092468750001 0.5964959999999999 Q 5.364396468750001 0.5964959999999999 5.430444468750001 0.6140399999999999 Q 5.4964924687500005 0.6315839999999999 5.560476468750001 0.6646079999999999 L 5.560476468750001 0.893712 L 5.5315804687500005 0.893712 L 5.463468468750001 0.786384 Q 5.395356468750001 0.6790559999999999 5.296284468750001 0.6790559999999999 Q 5.228172468750001 0.6790559999999999 5.186892468750001 0.713112 Q 5.1456124687500004 0.7471679999999999 5.1456124687500004 0.807024 Q 5.1456124687500004 0.873072 5.194116468750001 0.909192 Q 5.242620468750001 0.9453119999999999 5.34582046875 0.9907199999999999 Q 5.405676468750001 1.017552 5.463468468750001 1.04748 Q 5.52126046875 1.077408 5.559444468750001 1.13004 Q 5.597628468750001 1.182672 5.597628468750001 1.27968 Q 5.597628468750001 1.374624 5.547060468750001 1.438608 Q 5.4964924687500005 1.502592 5.422188468750001 1.535616 Q 5.347884468750001 1.56864 5.2735804687500005 1.56864 M 6.4917190031250005 1.548 L 6.4917190031250005 1.514976 L 6.623815003125 1.448928 L 6.623815003125 0.23529599999999995 L 6.497911003125 0.13003199999999993 L 6.497911003125 0.11351999999999984 L 6.803383003125 -2.220446049250313e-16 L 6.817831003125001 -2.220446049250313e-16 L 6.817831003125001 1.017552 L 7.146007003125001 0.736848 L 7.146007003125001 0.7244639999999999 L 7.044871003125 0.65016 L 7.044871003125 0.6171359999999999 L 7.447351003125 0.6171359999999999 L 7.447351003125 0.65016 L 7.315255003125 0.7223999999999999 L 6.987079003125 0.974208 L 7.3957510031250004 1.4448 L 7.527847003125 1.514976 L 7.527847003125 1.548 L 7.224439003125 1.548 L 7.150135003125 1.440672 L 6.817831003125001 1.05264 L 6.817831003125001 1.45512 L 6.962311003125 1.514976 L 6.962311003125 1.548 L 6.4917190031250005 1.548 M 7.743678918750001 1.548 L 7.743678918750001 1.514976 L 7.87577491875 1.448928 L 7.87577491875 0.831792 L 7.74987091875 0.7285919999999999 L 7.74987091875 0.7120799999999999 L 8.03470291875 0.5964959999999999 L 8.04915091875 0.5964959999999999 L 8.067726918750001 0.7492319999999999 L 8.078046918750001 0.7492319999999999 Q 8.15647891875 0.6728639999999999 8.228718918750001 0.6346799999999999 Q 8.30095891875 0.5964959999999999 8.39177491875 0.5964959999999999 Q 8.51148691875 0.5964959999999999 8.59095091875 0.657384 Q 8.670414918750001 0.7182719999999999 8.670414918750001 0.8400479999999999 L 8.670414918750001 1.448928 L 8.800446918750001 1.514976 L 8.800446918750001 1.548 L 8.33811091875 1.548 L 8.33811091875 1.514976 L 8.474334918750001 1.448928 L 8.474334918750001 0.9349919999999999 Q 8.474334918750001 0.84624 8.42067091875 0.8018639999999999 Q 8.36700691875 0.7574879999999999 8.28238291875 0.7574879999999999 Q 8.23078291875 0.7574879999999999 8.168862918750001 0.7739999999999999 Q 8.10694291875 0.7905119999999999 8.06979091875 0.8255999999999999 L 8.06979091875 1.448928 L 8.20601491875 1.514976 L 8.20601491875 1.548 L 7.743678918750001 1.548 M 9.5076287484375 1.56864 Q 9.369340748437502 1.56864 9.265108748437502 1.503624 Q 9.160876748437502 1.438608 9.102052748437501 1.328184 Q 9.043228748437501 1.21776 9.043228748437501 1.081536 Q 9.043228748437501 0.9453119999999999 9.102052748437501 0.834888 Q 9.160876748437502 0.7244639999999999 9.265108748437502 0.66048 Q 9.369340748437502 0.5964959999999999 9.5076287484375 0.5964959999999999 Q 9.645916748437502 0.5964959999999999 9.749116748437501 0.66048 Q 9.852316748437502 0.7244639999999999 9.911140748437502 0.834888 Q 9.969964748437501 0.9453119999999999 9.969964748437501 1.081536 Q 9.969964748437501 1.21776 9.911140748437502 1.328184 Q 9.852316748437502 1.438608 9.749116748437501 1.503624 Q 9.645916748437502 1.56864 9.5076287484375 1.56864 M 9.534460748437501 1.477824 Q 9.6128927484375 1.477824 9.662428748437502 1.426224 Q 9.711964748437502 1.374624 9.734668748437501 1.294128 Q 9.757372748437502 1.213632 9.757372748437502 1.122816 Q 9.757372748437502 1.013424 9.729508748437501 0.9133199999999999 Q 9.701644748437502 0.8132159999999999 9.641788748437502 0.7492319999999999 Q 9.581932748437502 0.685248 9.484924748437502 0.685248 Q 9.406492748437502 0.685248 9.354892748437502 0.7358159999999999 Q 9.303292748437501 0.786384 9.279556748437502 0.86688 Q 9.255820748437502 0.947376 9.255820748437502 1.038192 Q 9.255820748437502 1.147584 9.284716748437502 1.24872 Q 9.313612748437501 1.349856 9.375532748437502 1.41384 Q 9.4374527484375 1.477824 9.534460748437501 1.477824 M 10.691562328125002 1.56864 Q 10.491354328125002 1.56864 10.373706328125001 1.446864 Q 10.256058328125002 1.325088 10.256058328125002 1.122816 Q 10.256058328125002 0.9700799999999999 10.319010328125001 0.8503679999999999 Q 10.381962328125002 0.730656 10.491354328125002 0.6635759999999999 Q 10.600746328125002 0.5964959999999999 10.741098328125002 0.5964959999999999 Q 10.827786328125002 0.5964959999999999 10.906218328125002 0.6243599999999999 Q 10.984650328125001 0.6522239999999999 11.025930328125002 0.6976319999999999 Q 11.056890328125002 0.7347839999999999 11.056890328125002 0.7595519999999999 Q 11.056890328125002 0.776064 11.051730328125002 0.7853519999999999 Q 11.046570328125002 0.7946399999999999 11.032122328125002 0.8090879999999999 L 10.947498328125002 0.8772 L 10.933050328125002 0.8772 L 10.862874328125002 0.782256 Q 10.831914328125002 0.7389119999999999 10.788570328125001 0.713112 Q 10.745226328125002 0.6873119999999999 10.679178328125001 0.6873119999999999 Q 10.569786328125002 0.6873119999999999 10.507866328125 0.7781279999999999 Q 10.445946328125002 0.8689439999999999 10.445946328125002 1.027872 Q 10.445946328125002 1.12488 10.477938328125001 1.209504 Q 10.509930328125002 1.294128 10.585266328125002 1.345728 Q 10.660602328125002 1.397328 10.790634328125002 1.397328 Q 10.848426328125 1.397328 10.914474328125001 1.37772 Q 10.980522328125002 1.358112 11.054826328125001 1.318896 L 11.061018328125002 1.318896 L 11.061018328125002 1.343664 Q 11.013546328125003 1.438608 10.916538328125002 1.503624 Q 10.819530328125001 1.56864 10.691562328125002 1.56864 M 11.316136790625002 1.548 L 11.316136790625002 1.514976 L 11.448232790625003 1.448928 L 11.448232790625003 0.23529599999999995 L 11.322328790625003 0.13003199999999993 L 11.322328790625003 0.11351999999999984 L 11.627800790625002 -2.220446049250313e-16 L 11.642248790625002 -2.220446049250313e-16 L 11.642248790625002 1.017552 L 11.970424790625001 0.736848 L 11.970424790625001 0.7244639999999999 L 11.869288790625003 0.65016 L 11.869288790625003 0.6171359999999999 L 12.271768790625002 0.6171359999999999 L 12.271768790625002 0.65016 L 12.139672790625003 0.7223999999999999 L 11.811496790625002 0.974208 L 12.220168790625003 1.4448 L 12.352264790625002 1.514976 L 12.352264790625002 1.548 L 12.048856790625003 1.548 L 11.974552790625001 1.440672 L 11.642248790625002 1.05264 L 11.642248790625002 1.45512 L 11.786728790625002 1.514976 L 11.786728790625002 1.548 L 11.316136790625002 1.548" fill="#ffffff" fill-rule="nonzero"></path></g><g></g><g clip-path="url(#SvgjsClipPath1001)"><g clip-path="url(#SvgjsClipPath10004c2344fd-ee75-4d58-9496-cbc8a8f6514f)"><path d=" M 6.384856878653873 -6.159213552489098 L 8.994639908078698 -4.976978884572983 L 8.994639908078698 -1.8322346679161159 L 6.384856878653873 -0.6500000000000004 L 6.384856878653873 -3.9785817075178236 L 7.007894548645666 -3.6960276218858725 L 7.007894548645666 -2.299217361742982 L 7.74915568542907 -2.6355631247651163 L 7.74915568542907 -4.17424154505794 L 6.384856878653873 -4.791959159044111 L 6.384856878653873 -6.159213552489098 Z" fill="#cccccc" transform="matrix(1,0,0,1,0,0)" fill-rule="evenodd"></path></g><g clip-path="url(#SvgjsClipPath10004c2344fd-ee75-4d58-9496-cbc8a8f6514f)"><path d=" M 6.0142263102621705 -0.6500000000000004 L 3.405034398171305 -1.8322346679161159 L 3.405034398171305 -4.976978884572983 L 6.0142263102621705 -6.159213552489098 L 6.0142263102621705 -2.831222962305234 L 5.391779757604336 -3.113185930603228 L 5.391779757604336 -4.509996190746118 L 4.650518620820932 -4.17424154505794 L 4.650518620820932 -2.6355631247651163 L 6.0142263102621705 -2.017254393444989 L 6.0142263102621705 -0.6500000000000004 Z" fill="#ffffff" transform="matrix(1,0,0,1,0,0)" fill-rule="evenodd"></path></g></g></g><defs><clipPath id="SvgjsClipPath1001"><path d=" M 3.405034398171305 -6.159213552489098 h 5.5896055099073925 v 5.509213552489098 h -5.5896055099073925 Z"></path></clipPath><clipPath id="SvgjsClipPath10004c2344fd-ee75-4d58-9496-cbc8a8f6514f"><path d=" M 3.405034398171305 -6.159213552489098 L 8.994639908078698 -6.159213552489098 L 8.994639908078698 -0.6500000000000004 L 3.405034398171305 -0.6500000000000004 Z"></path></clipPath></defs></svg>